<svg width="73" height="73" viewBox="0 0 73 73" fill="none" xmlns="http://www.w3.org/2000/svg">
<g id="Progress">
<g id="Icon">
<circle id="Background" cx="36.2916" cy="36.782" r="25" fill="#F2F6FF"/>
<path id="Icon_2" d="M31.5189 44.0978C32.0712 44.0978 32.5189 43.6501 32.5189 43.0978C32.5189 42.5455 32.0712 42.0978 31.5189 42.0978V44.0978ZM30.8371 35.0451V36.0451H31.8371V35.0451H30.8371ZM41.7462 35.0451H40.7462V36.0451H41.7462V35.0451ZM41.0644 42.0978C40.5121 42.0978 40.0644 42.5455 40.0644 43.0978C40.0644 43.6501 40.5121 44.0978 41.0644 44.0978V42.0978ZM35.2916 45.782C35.2916 46.3343 35.7393 46.782 36.2916 46.782C36.8439 46.782 37.2916 46.3343 37.2916 45.782H35.2916ZM37.2916 37.7294C37.2916 37.1771 36.8439 36.7294 36.2916 36.7294C35.7393 36.7294 35.2916 37.1771 35.2916 37.7294H37.2916ZM36.9931 38.4421C37.3867 38.0547 37.3917 37.4215 37.0043 37.0279C36.6169 36.6343 35.9838 36.6292 35.5902 37.0166L36.9931 38.4421ZM32.8629 39.7009C32.4693 40.0883 32.4642 40.7214 32.8516 41.115C33.239 41.5086 33.8722 41.5137 34.2658 41.1263L32.8629 39.7009ZM36.9931 37.0166C36.5995 36.6292 35.9663 36.6343 35.5789 37.0279C35.1915 37.4215 35.1965 38.0547 35.5902 38.4421L36.9931 37.0166ZM38.3174 41.1263C38.7111 41.5137 39.3442 41.5086 39.7316 41.115C40.119 40.7214 40.114 40.0883 39.7204 39.7009L38.3174 41.1263ZM31.5189 42.0978H30.3825V44.0978H31.5189V42.0978ZM30.3825 42.0978C28.6604 42.0978 27.2916 40.7279 27.2916 39.0715H25.2916C25.2916 41.8624 27.586 44.0978 30.3825 44.0978V42.0978ZM27.2916 39.0715C27.2916 37.415 28.6604 36.0451 30.3825 36.0451V34.0451C27.586 34.0451 25.2916 36.2805 25.2916 39.0715H27.2916ZM30.3825 36.0451H30.8371V34.0451H30.3825V36.0451ZM31.8371 35.0451V34.1504H29.8371V35.0451H31.8371ZM31.8371 34.1504C31.8371 31.7527 33.8164 29.782 36.2916 29.782V27.782C32.7419 27.782 29.8371 30.6183 29.8371 34.1504H31.8371ZM36.2916 29.782C38.7669 29.782 40.7462 31.7527 40.7462 34.1504H42.7462C42.7462 30.6183 39.8413 27.782 36.2916 27.782V29.782ZM40.7462 34.1504V35.0451H42.7462V34.1504H40.7462ZM41.7462 36.0451H42.2007V34.0451H41.7462V36.0451ZM42.2007 36.0451C43.9229 36.0451 45.2916 37.415 45.2916 39.0715H47.2916C47.2916 36.2805 44.9973 34.0451 42.2007 34.0451V36.0451ZM45.2916 39.0715C45.2916 40.7279 43.9229 42.0978 42.2007 42.0978V44.0978C44.9973 44.0978 47.2916 41.8624 47.2916 39.0715H45.2916ZM42.2007 42.0978H41.0644V44.0978H42.2007V42.0978ZM37.2916 45.782V37.7294H35.2916V45.782H37.2916ZM35.5902 37.0166L32.8629 39.7009L34.2658 41.1263L36.9931 38.4421L35.5902 37.0166ZM35.5902 38.4421L38.3174 41.1263L39.7204 39.7009L36.9931 37.0166L35.5902 38.4421Z" fill="#234CAD"/>
</g>
<path id="Stroke" d="M1.29163 36.782C1.29163 56.1119 16.9617 71.782 36.2916 71.782C55.6216 71.782 71.2916 56.1119 71.2916 36.782C71.2916 17.452 55.6216 1.78198 36.2916 1.78198" stroke="#234CAD" stroke-width="2" stroke-linecap="round" stroke-linejoin="round"/>
</g>
</svg>
