<svg width="54" height="54" viewBox="0 0 54 54" fill="none" xmlns="http://www.w3.org/2000/svg">
<g id="Progress">
<path id="Stroke" d="M53 31C53 14.4315 39.5685 1 23 1" stroke="#234CAD" stroke-width="2" stroke-linecap="round" stroke-linejoin="round"/>
<g id="Icon">
<circle id="Background" cx="23" cy="31" r="23" fill="#F2F6FF"/>
<path id="Icon_2" d="M18.2273 38.3158C18.7796 38.3158 19.2273 37.8681 19.2273 37.3158C19.2273 36.7635 18.7796 36.3158 18.2273 36.3158V38.3158ZM17.5455 29.2632V30.2632H18.5455V29.2632H17.5455ZM28.4545 29.2632H27.4545V30.2632H28.4545V29.2632ZM27.7727 36.3158C27.2204 36.3158 26.7727 36.7635 26.7727 37.3158C26.7727 37.8681 27.2204 38.3158 27.7727 38.3158V36.3158ZM22 40C22 40.5523 22.4477 41 23 41C23.5523 41 24 40.5523 24 40H22ZM24 31.9474C24 31.3951 23.5523 30.9474 23 30.9474C22.4477 30.9474 22 31.3951 22 31.9474H24ZM23.7015 32.6601C24.0951 32.2727 24.1001 31.6395 23.7127 31.2459C23.3253 30.8523 22.6922 30.8473 22.2985 31.2347L23.7015 32.6601ZM19.5713 33.9189C19.1777 34.3063 19.1726 34.9394 19.56 35.333C19.9474 35.7267 20.5806 35.7317 20.9742 35.3443L19.5713 33.9189ZM23.7015 31.2347C23.3078 30.8473 22.6747 30.8523 22.2873 31.2459C21.8999 31.6395 21.9049 32.2727 22.2985 32.6601L23.7015 31.2347ZM25.0258 35.3443C25.4194 35.7317 26.0526 35.7267 26.44 35.333C26.8274 34.9394 26.8223 34.3063 26.4287 33.9189L25.0258 35.3443ZM18.2273 36.3158H17.0909V38.3158H18.2273V36.3158ZM17.0909 36.3158C15.3688 36.3158 14 34.9459 14 33.2895H12C12 36.0804 14.2943 38.3158 17.0909 38.3158V36.3158ZM14 33.2895C14 31.633 15.3688 30.2632 17.0909 30.2632V28.2632C14.2943 28.2632 12 30.4986 12 33.2895H14ZM17.0909 30.2632H17.5455V28.2632H17.0909V30.2632ZM18.5455 29.2632V28.3684H16.5455V29.2632H18.5455ZM18.5455 28.3684C18.5455 25.9708 20.5248 24 23 24V22C19.4503 22 16.5455 24.8363 16.5455 28.3684H18.5455ZM23 24C25.4752 24 27.4545 25.9708 27.4545 28.3684H29.4545C29.4545 24.8363 26.5497 22 23 22V24ZM27.4545 28.3684V29.2632H29.4545V28.3684H27.4545ZM28.4545 30.2632H28.9091V28.2632H28.4545V30.2632ZM28.9091 30.2632C30.6312 30.2632 32 31.633 32 33.2895H34C34 30.4986 31.7057 28.2632 28.9091 28.2632V30.2632ZM32 33.2895C32 34.9459 30.6312 36.3158 28.9091 36.3158V38.3158C31.7057 38.3158 34 36.0804 34 33.2895H32ZM28.9091 36.3158H27.7727V38.3158H28.9091V36.3158ZM24 40V31.9474H22V40H24ZM22.2985 31.2347L19.5713 33.9189L20.9742 35.3443L23.7015 32.6601L22.2985 31.2347ZM22.2985 32.6601L25.0258 35.3443L26.4287 33.9189L23.7015 31.2347L22.2985 32.6601Z" fill="#234CAD"/>
</g>
</g>
</svg>
