<svg width="60" height="60" viewBox="0 0 60 60" fill="none" xmlns="http://www.w3.org/2000/svg">
<g id="Icon">
<circle id="Background" cx="30" cy="30" r="30" fill="#F2F6FF"/>
<g id="Icon_2">
<path id="Shape" fill-rule="evenodd" clip-rule="evenodd" d="M25.7188 22.1521H35.2812C36.1614 22.1521 36.875 22.8747 36.875 23.7662V37.3978L31.3618 33.8084C30.8368 33.4667 30.1632 33.4667 29.6382 33.8084L24.125 37.3978V23.7662C24.125 22.8747 24.8385 22.1521 25.7188 22.1521ZM22 23.7662C22 21.6862 23.6649 20 25.7188 20H35.2812C37.3351 20 39 21.6862 39 23.7662V38.3833C39 39.6603 37.605 40.4316 36.5445 39.741L30.5 35.8058L30.7872 35.6188C30.6123 35.7327 30.3877 35.7327 30.2128 35.6188L30.5 35.8058L24.4556 39.741C23.3949 40.4316 22 39.6603 22 38.3833V23.7662ZM24.125 37.3978V38.3833C24.125 37.9577 23.66 37.7006 23.3065 37.9308L24.125 37.3978ZM36.875 37.3978L37.6936 37.9308C37.34 37.7006 36.875 37.9577 36.875 38.3833V37.3978Z" fill="#234CAD"/>
</g>
</g>
</svg>
